<svg width="121" height="26" fill="none" xmlns="http://www.w3.org/2000/svg"><path fill-rule="evenodd" clip-rule="evenodd" d="M13.303 12.58H.975V0h12.328v12.58zm106.842-.787V9.68h-2.583V6.39l-.087.027-2.427.755-.048.015v2.49h-3.83V8.292c0-.646.142-1.14.423-1.47.278-.326.676-.492 1.183-.492.365 0 .743.088 1.123.26l.095.043V4.405l-.045-.017c-.354-.13-.837-.194-1.435-.194-.753 0-1.438.166-2.035.497a3.516 3.516 0 00-1.397 1.403c-.328.6-.494 1.292-.494 2.059v1.526h-1.799v2.114h1.799v8.909h2.582v-8.909H115v5.661c0 2.332 1.082 3.514 3.216 3.514.351 0 .72-.042 1.096-.124.384-.084.645-.168.799-.257l.034-.02v-2.135l-.105.07c-.14.096-.315.173-.519.23a1.944 1.944 0 01-.51.089c-.5 0-.87-.137-1.1-.407-.232-.273-.349-.75-.349-1.417v-5.204h2.583zm-19.123 7.028c-.937 0-1.676-.316-2.197-.938-.524-.625-.79-1.517-.79-2.65 0-1.169.266-2.084.79-2.72.521-.633 1.253-.953 2.176-.953.896 0 1.608.306 2.119.911.513.608.773 1.516.773 2.698 0 1.197-.244 2.117-.727 2.732-.48.61-1.201.92-2.144.92zm-4.106-7.825c1.012-1.05 2.433-1.583 4.221-1.583 1.684 0 3.021.51 3.97 1.515.95 1.004 1.431 2.403 1.431 4.156 0 1.774-.513 3.214-1.525 4.278-1.012 1.065-2.404 1.605-4.138 1.605-1.663 0-3.008-.512-3.996-1.524-.988-1.011-1.489-2.4-1.489-4.125 0-1.817.514-3.271 1.526-4.322zm-5.69-1.583c-1.216 0-2.222.316-2.99.94-.774.627-1.166 1.45-1.166 2.445 0 .518.085.978.251 1.367.168.392.427.736.772 1.025.342.287.87.587 1.57.893.588.246 1.026.454 1.305.618.272.16.466.322.575.48.106.153.16.364.16.624 0 .74-.546 1.101-1.669 1.101-.416 0-.89-.088-1.411-.262a5.272 5.272 0 01-1.446-.745l-.107-.079v2.527l.04.02c.365.17.825.315 1.368.429a7.229 7.229 0 001.462.172c1.32 0 2.383-.318 3.159-.945.78-.632 1.176-1.474 1.176-2.504 0-.743-.213-1.38-.633-1.894-.417-.51-1.14-.978-2.15-1.391-.803-.328-1.318-.6-1.53-.81-.206-.202-.31-.487-.31-.849 0-.32.129-.577.392-.785.266-.21.636-.315 1.1-.315.43 0 .87.069 1.307.204.438.135.822.317 1.143.538l.106.074V9.894l-.041-.018c-.296-.13-.686-.24-1.16-.33a6.97 6.97 0 00-1.272-.133zm-13.085 8.47c.52.622 1.26.938 2.197.938.943 0 1.664-.31 2.143-.92.483-.615.728-1.535.728-2.732 0-1.182-.26-2.09-.773-2.698-.511-.605-1.224-.911-2.119-.911-.923 0-1.655.32-2.175.953-.525.636-.79 1.551-.79 2.72 0 1.133.265 2.025.789 2.65zm2.312-8.47c-1.789 0-3.21.533-4.221 1.583-1.012 1.05-1.526 2.505-1.526 4.322 0 1.726.501 3.114 1.49 4.125.987 1.012 2.332 1.524 3.995 1.524 1.734 0 3.126-.54 4.138-1.605 1.012-1.064 1.525-2.504 1.525-4.278 0-1.753-.481-3.152-1.43-4.156-.95-1.006-2.287-1.515-3.971-1.515zm-9.667.266v1.909h.027c.239-.62.55-1.117.982-1.48a2.588 2.588 0 011.706-.62c.425 0 .761.051.999.154l.041.018v2.614l-.107-.08c-.118-.086-.319-.168-.595-.244a2.95 2.95 0 00-.767-.114c-.678 0-1.233.297-1.65.885-.422.595-.636 1.383-.636 2.342V20.7h-2.55V9.68h2.55zm-7.119-.266c-1.17 0-2.214.255-3.102.758a5.07 5.07 0 00-2.046 2.138c-.466.913-.703 1.98-.703 3.168 0 1.042.23 1.997.683 2.84a4.84 4.84 0 001.91 1.962c.81.457 1.75.689 2.788.689 1.212 0 2.247-.247 3.077-.733l.034-.02V17.84l-.108.08c-.375.278-.796.5-1.248.66-.45.16-.861.241-1.222.241-1 0-1.804-.318-2.388-.946-.584-.628-.88-1.51-.88-2.621 0-1.118.309-2.023.918-2.69.607-.667 1.412-1.004 2.392-1.004.839 0 1.656.288 2.429.858l.107.08V9.993l-.035-.02c-.29-.165-.688-.302-1.18-.405a6.938 6.938 0 00-1.426-.156zm-10.158.266h2.55V20.7h-2.55V9.68zm1.301-4.696c-.42 0-.786.145-1.087.433a1.44 1.44 0 00-.455 1.081c0 .422.151.78.45 1.06.298.28.665.423 1.092.423a1.56 1.56 0 001.097-.422c.303-.282.456-.638.456-1.06 0-.415-.15-.775-.444-1.07a1.509 1.509 0 00-1.109-.445zM48.445 20.7V8.865h-.084l-4.62 11.836h-1.846L37.202 8.864h-.084v11.837h-2.446V5.321h3.75l4.444 11.424 4.58-11.425h3.603v15.381h-2.604zm-34.32-8.12h12.328V0H14.125v12.58zM13.303 26H.975V13.42h12.328V26zm.822 0h12.328V13.42H14.125V26z" fill="#fff"/></svg>