<svg width="115" height="22" fill="none" xmlns="http://www.w3.org/2000/svg"><path fill-rule="evenodd" clip-rule="evenodd" d="M32.395 0H18.761l-.619 1.647c5.406.256 9.703 4.32 9.703 9.296 0 4.625-3.713 8.462-8.577 9.186l-.584 1.767h13.711a2.875 2.875 0 002.05-.85c.545-.548.851-1.292.851-2.069V2.91c0-1.62-1.3-2.909-2.9-2.909zM7.433 10.944c0 4.071 2.888 7.665 6.905 8.97l-.701 1.982H2.894C1.296 21.896 0 20.572 0 18.956V2.93C-.001 1.315 1.294.003 2.894.001h11.09l-.695 1.955c-3.348 1.796-5.856 5.408-5.856 8.988zm100.575 2.412h-6.335v8.629h6.296c2.28 0 2.434-2.226 2.434-3.436V16.01c0-1.523-.773-2.655-2.395-2.655zm.424 5.427v-2.46c.04-.546-.346-1.17-.926-1.17h-3.864v5.036h3.709c.695 0 1.081-.665 1.081-1.406zm-9.479-.152c.466-.393.775-.98.775-2.547 0-1.764-1.2-2.743-2.595-2.743h-5.696v8.658h1.938v-2.547h3.33c.776 0 1.164.627 1.164.98v1.567h1.86v-1.802c0-.51-.156-1.253-.776-1.566zm-5.58-.98h3.565c.737 0 .93-.901.93-1.332 0-.432-.193-1.175-1.163-1.175h-3.331v2.507zm-7.32-4.293h-2.549l-3.436 7.415v1.21h1.544l.695-1.562h4.935l.704 1.562h2.009l-3.902-8.625zm-1.274 1.6l-1.661 3.669h3.314l-1.653-3.669zm-13.67 7.034v-8.643h1.974v3.246h.85l3.366-3.246h2.631l-4.14 4.067 3.443 3.442v1.134h-1.47l-3.675-3.599h-1.005v3.599h-1.974zM60.742 19.95v-4.562c0-.973 1.042-2.026 1.967-2.026h4.746c1.235.038 1.967 1.326 1.967 2.066v.74h-1.966c-.04-.39-.387-.974-.695-.974h-3.396c-.771 0-.655.78-.655.78v3.43c0 .624.385.78.617.78h3.356c.733 0 .811-.624.811-1.014h1.929v.78c0 1.287-.887 2.027-1.967 2.027H62.75c-1.467 0-2.007-1.13-2.007-2.027zm-4.778-6.61h-2.558L49.416 22h2.091l.698-1.567h4.951L57.862 22h2.015l-3.913-8.66zm-1.28 1.606L53.02 18.63h3.293l-1.628-3.684zm-7.481-1.593h-6.222v8.633h1.97v-2.422h4.251c1.16 0 2.474-.664 2.474-3.086 0-2.46-1.43-3.125-2.473-3.125zm-4.252 4.414h3.788c.85 0 .85-.898.85-1.288s0-1.329-.966-1.329h-3.671v2.617zM40.982.142v8.633h1.97V5.337h5.14v3.438h1.971V.142h-1.97V3.54h-5.14V.142H40.98zM53.443.136h6.577v1.8H54.06V3.54h4.953v1.8H54.06v1.642h5.959V8.78h-6.693c-.774 0-1.238-.626-1.238-1.134v-6.22c0-.783.464-1.291 1.354-1.291zM75.9.145v7.338c0 .664.503 1.288 1.391 1.288h5.795V6.976h-5.215V.145h-1.97zm22.443 1.79V8.78H96.37V1.935h-2.844v-1.8h7.701v1.8h-2.884zm9.126 6.851V1.931h2.886V.13h-7.709v1.802h2.848v6.855h1.975zM85.507.14h6.573v1.797h-5.954V3.54h4.949v1.797h-4.949V6.98h5.954v1.797h-6.689c-.774 0-1.237-.625-1.237-1.133V1.43c0-.783.463-1.29 1.353-1.29zM70.516 8.79c-.582 0-1.144-.882-1.26-1.313l-1.453-4.528-1.9 5.841h-1.201c-.582 0-1.086-.901-1.203-1.332L61.136.128h1.977l1.823 5.918 1.938-5.88h1.86l1.937 5.88L72.492.127h1.977L71.68 8.79h-1.163zM113.025.075a1.846 1.846 0 011.357.565c.373.376.56.831.56 1.366a1.887 1.887 0 01-.56 1.374c-.374.379-.827.569-1.357.569-.532 0-.983-.19-1.355-.57a1.891 1.891 0 01-.555-1.373 1.874 1.874 0 01.56-1.366 1.833 1.833 0 011.35-.565zm1.166 3.117c-.304.32-.727.498-1.166.49a1.57 1.57 0 01-1.166-.49 1.638 1.638 0 01-.478-1.187c0-.46.16-.853.48-1.179.322-.326.709-.49 1.165-.49.455 0 .844.164 1.166.49.32.326.479.719.479 1.18 0 .464-.159.86-.48 1.186zM15.046 0L9.852 14.667v.001h2.194l2.54-7.06h.691c.462 0 .462.34.385.718l-2.27 6.342h2.27s1.962-5.36 2.309-6.493c.345-1.133-.347-1.7-1.694-1.7H14.97L17.278 0h-2.232zm5.035 6.439h3.59c1.081 0 2.202.568 1.623 2.123l-1.66 4.625c-.31.872-.58 1.479-2.201 1.479h-2.03l-2.294 6.52h-2.201L20.08 6.438zm2.973 1.706s-1.621 4.511-1.66 4.739c-.039.227-.232.644-.618.644h-.974l2.094-5.952h.965c.348 0 .309.266.193.569z" fill="#fff"/></svg>