<svg width="107" height="16" fill="none" xmlns="http://www.w3.org/2000/svg"><path fill-rule="evenodd" clip-rule="evenodd" d="M2.757 3.746C1.36 3.431.302 2.171 0 .91L17.26.871v.04a3.944 3.944 0 01-2.758 2.835h-4.305l-.227.08v11.303H7.29V3.825l-.227-.079H2.757zm23.896-.008h10.288c1.448-.275 2.515-1.61 2.781-2.867H23.834c.305 1.257 1.372 2.553 2.82 2.867zm76.586 0H92.951c-1.41-.314-2.477-1.61-2.781-2.867h15.85c-.305 1.257-1.334 2.592-2.781 2.867zM90.589 15.13V6.527h15.088v8.602h-2.667V9.395h-9.754v5.734h-2.667zm-8.116 0c1.334-.589 2.057-1.61 2.362-2.789H72.833V.91h-2.705v14.22h12.345zM59.65 3.7h-9.526l.038 2.828h12.346v8.602H46.694c.648-1.375 1.943-2.435 3.467-2.867h9.678V9.316H47.495V.91h15.089c-.305 1.218-1.486 2.357-2.934 2.79zM36.94 9.355H26.653c-1.447-.314-2.514-1.61-2.82-2.867h15.89c-.267 1.257-1.334 2.592-2.782 2.867zM26.653 15.13h10.288c1.448-.275 2.515-1.61 2.781-2.867H23.834c.305 1.257 1.372 2.592 2.82 2.867z" fill="#fff"/></svg>