<svg width="79" height="27" fill="none" xmlns="http://www.w3.org/2000/svg"><path fill-rule="evenodd" clip-rule="evenodd" d="M15.873 13.156H12.42l1.155-1.129h6.16l-.906.893c-.169.152-.281.325-.281.577v4.931c-2.875.787-5.364 1.208-8.167 1.208C4.601 19.636 0 15.893 0 9.678 0 5.313 3.45 0 10.996 0c3.438 0 5.844 1.05 7.504 2.157L15.874 4.74V3.183c-1.4-1.249-2.966-2.146-5.656-2.146-4.252 0-7.3 3.246-7.3 7.872 0 4.717 3.37 9.548 9.103 9.548 1.414 0 2.775-.187 3.852-.528v-4.773zm11.603-6.61c-4.271 0-6.918 3.018-6.918 6.223 0 2.765 2.132 6.05 6.452 6.05 4.156 0 6.705-3.026 6.705-6.286 0-3.037-2.491-5.986-6.239-5.986v-.002zm-.708.88c3.011 0 4.352 3.794 4.352 6.501 0 4.025-3.122 4.105-3.495 4.105-1.429 0-2.427-.835-3.175-1.93-.658-1.01-1.301-2.886-1.301-4.718 0-1.826.618-2.717 1.59-3.373a3.82 3.82 0 012.028-.585zm28.67-.88c-3.605 0-5.555 2.368-5.555 5.013 0 2.014 1.39 4.286 4.257 4.286h.725s-.197.498-.198.979c0 .71.245 1.108.767 1.722-4.934.312-6.916 2.377-6.916 4.597 0 1.944 1.793 3.857 5.562 3.857 4.462 0 6.772-2.571 6.772-5.094 0-1.78-.853-2.754-3.016-4.436-.635-.513-.759-.84-.759-1.223 0-.54.306-.9.427-1.044l.006-.008c.135-.147.336-.309.494-.437.082-.066.153-.123.198-.165.727-.64 1.753-1.584 1.753-3.471 0-1.295-.519-2.408-1.7-3.451h1.442l1.084-1.125h-5.343zm-.994.841c.654 0 1.2.24 1.777.738.64.6 1.662 2.208 1.662 4.198 0 2.148-1.608 2.736-2.479 2.736-.425 0-.936-.124-1.368-.43-.96-.647-1.913-2.366-1.913-4.413 0-1.846 1.06-2.829 2.32-2.829zm1.9 11.997s-.198-.023-.473-.023c-3.702.054-5.05 1.503-5.05 3.187 0 2.032 1.968 3.277 4.544 3.277 2.346 0 3.795-1.271 3.795-2.892 0-1.18-.658-1.842-1.714-2.708a52.81 52.81 0 00-1.102-.84zm10.29-.566h-5.236l.96-.944a.716.716 0 00.23-.547V1.147h-1.736L62.015 0h4.464l-.944.933a.72.72 0 00-.25.565v15.619c0 .334.24.68.645.728l1.501.186-.797.787zm.797-6.38c0-3.785 3.143-5.893 6.102-5.893h.001c3.14 0 4.505 1.626 4.99 3.24l-8.387 3.17c.8 2.943 3.09 4.544 5.464 4.544 1.25 0 2.19-.357 3.343-.9a6.098 6.098 0 01-2.318 1.745c-.81.348-1.675.474-2.726.474-4.214 0-6.469-3.254-6.469-6.38zm8.29-2.85c0-.956-1.148-2.177-2.736-2.177-1.049 0-3.177.736-3.177 3.486 0 .656.14 1.263.14 1.263l5.155-1.95c.41-.15.618-.313.618-.622zM42.278 6.545c-4.271 0-6.918 3.02-6.918 6.224 0 2.765 2.132 6.05 6.452 6.05 4.156 0 6.706-3.026 6.706-6.286 0-3.037-2.492-5.986-6.24-5.986v-.002zm-.708.88c3.011 0 4.352 3.795 4.352 6.502 0 4.025-3.122 4.105-3.495 4.105-1.429 0-2.427-.835-3.175-1.93-.658-1.01-1.301-2.886-1.301-4.718 0-1.826.618-2.717 1.59-3.373a3.821 3.821 0 012.028-.585z" fill="#fff"/></svg>